<?xml version="1.0" standalone="no"?>
<!DOCTYPE svg PUBLIC "-//W3C//DTD SVG 20010904//EN"
 "http://www.w3.org/TR/2001/REC-SVG-20010904/DTD/svg10.dtd">
<svg version="1.0" xmlns="http://www.w3.org/2000/svg"
 width="700.000000pt" height="700.000000pt" viewBox="0 0 700.000000 700.000000"
 preserveAspectRatio="xMidYMid meet">
<metadata>
Created by potrace 1.11, written by Peter Selinger 2001-2013
</metadata>
<g transform="translate(0.000000,700.000000) scale(0.100000,-0.100000)"
fill="#000000" stroke="none">
<path d="M278 6300 l-3 -701 -132 111 c-73 60 -135 110 -138 110 -3 0 -5
-1309 -5 -2910 l0 -2910 3500 0 3500 0 0 2910 c0 1601 -2 2910 -5 2910 -3 0
-65 -49 -138 -109 l-132 -110 -3 700 -2 699 -3220 0 -3220 0 -2 -700z m6272
-158 l0 -688 -838 -697 -837 -697 -1375 0 -1375 0 -837 697 -838 697 0 688 0
688 3050 0 3050 0 0 -688z m-2190 -2505 c0 -8 -851 -712 -860 -712 -10 0 -846
690 -856 707 -3 4 382 8 855 8 474 0 861 -2 861 -3z"/>
<path d="M2100 5530 l0 -210 1400 0 1400 0 0 210 0 210 -1400 0 -1400 0 0
-210z"/>
<path d="M2100 4690 l0 -210 1400 0 1400 0 0 210 0 210 -1400 0 -1400 0 0
-210z"/>
</g>
</svg>
